<svg width="14" height="12" viewBox="0 0 14 12" fill="none" xmlns="http://www.w3.org/2000/svg">
<path fill-rule="evenodd" clip-rule="evenodd" d="M11.5 6C11.5 8.48528 9.48528 10.5 7 10.5C4.51472 10.5 2.5 8.48528 2.5 6C2.5 3.51472 4.51472 1.5 7 1.5C9.48528 1.5 11.5 3.51472 11.5 6ZM12.811 7.5C12.1449 10.0878 9.79576 12 7 12C4.20424 12 1.85509 10.0878 1.18903 7.5H0V4.5H1.18903C1.85509 1.91216 4.20424 0 7 0C9.79576 0 12.1449 1.91216 12.811 4.5H14V7.5H12.811ZM9 6.32033C9 5.55643 7.83137 3.87051 7.26184 3.13864C7.1177 2.95377 6.89414 2.95378 6.75 3.13865C6.18047 3.87052 5 5.55643 5 6.32033C5 7.34409 5.86094 8.33335 7 8.33335C8.13906 8.33335 9 7.34409 9 6.32033Z" fill="white"/>
</svg>
